<svg xmlns="http://www.w3.org/2000/svg" version="1.1" xmlns:xlink="http://www.w3.org/1999/xlink" width="1000" height="1000"><g clip-path="url(#SvgjsClipPath1123)"><rect width="1000" height="1000" fill="#4c8f5f"></rect><g transform="matrix(2.4734982332155475,0,0,2.4734982332155475,150,174.73498233215548)"><svg xmlns="http://www.w3.org/2000/svg" version="1.1" xmlns:xlink="http://www.w3.org/1999/xlink" width="283" height="263"><svg width="283" height="263" viewBox="0 0 283 263" fill="none" xmlns="http://www.w3.org/2000/svg">
<g clip-path="url(#clip0_4011_14474)">
<path d="M167.267 98.423L262.257 26.433L118.757 155.423C56.4968 182.213 -11.7832 133.663 1.72675 64.393C7.75675 33.463 35.2567 7.43296 66.0567 1.72296C127.117 -9.59704 178.077 36.253 167.277 98.433L167.267 98.423ZM57.6068 113.073C99.0868 151.953 151.287 82.563 109.727 48.453C67.4068 13.703 20.4468 78.243 57.6068 113.073Z" fill="white"></path>
<path d="M241.257 219.423V200.423H211.757L210.257 198.923V168.423H282.257V238.923C224.447 287.273 126.047 260.403 128.757 176.423L39.2568 243.413L195.347 104.013C197.427 102.693 199.237 100.903 201.817 100.483C207.047 99.613 221.067 99.983 226.747 100.443C244.717 101.913 263.877 110.853 277.077 122.923L251.617 153.363C218.337 124.003 168.657 141.573 174.537 189.653C178.457 221.783 214.787 233.903 241.257 219.433V219.423Z" fill="white"></path>
</g>
<defs>
<clipPath id="clip0_4011_14474">
<rect width="283" height="263" fill="white"></rect>
</clipPath>
<clipPath id="SvgjsClipPath1123"><rect width="1000" height="1000" x="0" y="0" rx="200" ry="200"></rect></clipPath></defs>
</svg></svg></g></g></svg>